<?xml version="1.0" encoding="UTF-8"?>
<svg version="1.1" xmlns="http://www.w3.org/2000/svg" width="1000" height="700">
<path d="M0 0 C0.85464844 0.81082031 1.70929688 1.62164062 2.58984375 2.45703125 C4.36418137 4.13781856 6.14427505 5.67996551 8.0625 7.1875 C15.79360017 13.86435923 21.67187591 22.45687621 27.8125 30.5625 C28.63234375 31.62984375 28.63234375 31.62984375 29.46875 32.71875 C30.94142707 34.64959327 32.38098784 36.60093171 33.8125 38.5625 C34.49957031 39.490625 35.18664062 40.41875 35.89453125 41.375 C55.88102965 69.15861617 59.40798321 99.01670731 58.62548828 132.54516602 C58.5628022 135.36142336 58.52115833 138.17749032 58.48046875 140.99414062 C58.17066515 157.30598932 56.37621598 173.33646862 52.125 189.125 C51.87081299 190.07842285 51.61662598 191.0318457 51.35473633 192.01416016 C48.69413909 201.58785067 45.08179622 210.60188517 40.8125 219.5625 C40.46848145 220.29162598 40.12446289 221.02075195 39.77001953 221.77197266 C31.9868903 238.00950334 21.26883841 251.65251649 8.8125 264.5625 C8.07644531 265.35011719 7.34039063 266.13773437 6.58203125 266.94921875 C-26.53170737 301.51055251 -78.48248064 318.60138237 -125.3515625 319.765625 C-180.95179762 320.44252723 -231.69809982 304.08478622 -273.1875 266.5625 C-273.85910156 265.96308594 -274.53070313 265.36367188 -275.22265625 264.74609375 C-305.905774 235.80386211 -322.28168437 191.22925918 -323.50456238 149.73747253 C-323.52754898 148.79672379 -323.55053558 147.85597504 -323.57421875 146.88671875 C-323.59974319 145.88147659 -323.62526764 144.87623444 -323.65156555 143.8405304 C-323.70332118 141.71852929 -323.75277619 139.59647095 -323.80004883 137.47436523 C-323.87390883 134.29694145 -323.96503806 131.12031404 -324.05664062 127.94335938 C-324.97284996 91.37874767 -317.7758433 62.84214761 -295.4609375 33.55859375 C-293.96546487 31.58775611 -292.49074012 29.60097137 -291.0390625 27.59765625 C-274.66928243 5.11136991 -253.80176173 -11.66893074 -229.1875 -24.4375 C-228.03507812 -25.04078125 -226.88265625 -25.6440625 -225.6953125 -26.265625 C-155.83489467 -60.80685609 -58.71279251 -53.19615429 0 0 Z " fill="#FACF2D" transform="translate(632.1875,213.4375)"/>
<path d="M0 0 C1.47919922 1.19882813 1.47919922 1.19882813 2.98828125 2.421875 C23.80588289 19.97234787 33.19465118 47.17888161 35.67382812 73.64819336 C36.21514074 81.25110749 35.62502715 88.50677627 34.33984375 96.00488281 C34.00611958 97.96407382 33.72132141 99.93139743 33.4375 101.8984375 C30.67914774 118.62094806 22.31009762 132.86602898 8.78125 143.1796875 C-6.84363649 153.40608793 -24.70609925 155.50820193 -42.91796875 152.3125 C-45.77068457 151.40807226 -48.3289883 150.34393176 -51 149 C-51.89976562 148.59910156 -52.79953125 148.19820312 -53.7265625 147.78515625 C-77.9510675 136.01409396 -91.29794022 110.69674813 -99.75 86.375 C-103.01858244 76.17143178 -105.48989561 65.72719523 -106 55 C-106.06445312 53.75863281 -106.12890625 52.51726562 -106.1953125 51.23828125 C-106.89628105 31.35413999 -101.85087734 12.80045735 -88.5703125 -2.4609375 C-62.72891698 -27.98815192 -25.87329095 -21.24896568 0 0 Z " fill="#F9F9F9" transform="translate(655,242)"/>
<path d="M0 0 C14.03192804 10.58890866 21.03613637 26.76305998 23.71142578 43.71972656 C27.45786031 73.32353239 17.0350764 107.10427994 -0.25 131.125 C-11.38472725 145.38196496 -25.50864654 158.0104491 -44 161 C-56.11774543 162.14536442 -68.8897203 162.52930199 -80 157 C-80.92425781 156.57589844 -81.84851563 156.15179688 -82.80078125 155.71484375 C-97.21418901 148.55797876 -106.05820503 137.15449314 -111.87109375 122.36328125 C-121.36294785 94.08478165 -118.61280206 64.55450951 -105.89453125 37.66796875 C-103.10845659 32.09728041 -99.7047364 27.00533535 -96 22 C-95.55914062 21.39800781 -95.11828125 20.79601562 -94.6640625 20.17578125 C-91.31106211 15.88889148 -87.16579804 12.46059314 -83 9 C-82.18917969 8.32453125 -81.37835938 7.6490625 -80.54296875 6.953125 C-56.82962647 -12.42552031 -26.20967475 -18.63269605 0 0 Z " fill="#F9F9F8" transform="translate(426,234)"/>
<path d="M0 0 C0.33 0 0.66 0 1 0 C1.63764427 40.01136049 1.63764427 40.01136049 -2 56 C-2.29801514 57.35641602 -2.29801514 57.35641602 -2.60205078 58.74023438 C-5.68578886 72.4611364 -9.95216773 85.30650376 -16 98 C-16.34401855 98.72912598 -16.68803711 99.45825195 -17.04248047 100.20947266 C-24.8256097 116.44700334 -35.54366159 130.09001649 -48 143 C-48.73605469 143.78761719 -49.47210937 144.57523438 -50.23046875 145.38671875 C-83.34420737 179.94805251 -135.29498064 197.03888237 -182.1640625 198.203125 C-237.76429762 198.88002723 -288.51059982 182.52228622 -330 145 C-330.67160156 144.40058594 -331.34320313 143.80117188 -332.03515625 143.18359375 C-340.10733245 135.56941337 -346.61906581 126.03005849 -353 117 C-352.505 116.01 -352.505 116.01 -352 115 C-351.26136719 115.88300781 -350.52273438 116.76601563 -349.76171875 117.67578125 C-335.19837623 134.96672252 -319.64851992 148.72820415 -300 160 C-298.91203125 160.64324219 -297.8240625 161.28648437 -296.703125 161.94921875 C-264.85794655 180.25140806 -229.12977079 186.07987822 -193 186.25 C-191.72701553 186.25844437 -191.72701553 186.25844437 -190.42831421 186.26705933 C-180.73242597 186.31314479 -171.52682704 186.00071732 -162 184 C-159.93902671 183.61598 -157.87782221 183.23319912 -155.81640625 182.8515625 C-139.68370773 179.78140547 -139.68370773 179.78140547 -124 175 C-122.68128906 174.51853516 -122.68128906 174.51853516 -121.3359375 174.02734375 C-106.25053516 168.09941804 -91.03485828 160.68250249 -78 151 C-76.9378125 150.22011719 -75.875625 149.44023437 -74.78125 148.63671875 C-64.62315613 141.06383525 -54.98706678 132.88377763 -47 123 C-46.25363281 122.1028125 -45.50726562 121.205625 -44.73828125 120.28125 C-24.70809237 95.3771533 -12.84791734 65.26627409 -8.41699219 33.74926758 C-7.62278742 28.3883854 -6.28081936 24.08155099 -3.93823242 19.20336914 C-2.38919914 15.56557957 -1.82973268 11.82852933 -1.25 7.9375 C-1.12496094 7.16728516 -0.99992187 6.39707031 -0.87109375 5.60351562 C-0.56973655 3.7374191 -0.28323664 1.86893269 0 0 Z " fill="#EB9002" transform="translate(689,335)"/>
<path d="M0 0 C10.08131924 6.26031161 15.94953119 14.85937482 19.80078125 25.96875 C20.84598805 30.44094017 21.01435866 34.54756008 20.99609375 39.12109375 C21.01220703 39.9203125 21.02832031 40.71953125 21.04492188 41.54296875 C21.05262734 51.06692314 18.19500601 58.75939593 11.68359375 65.74609375 C5.93960647 70.29341702 0.326901 72.25413556 -6.95703125 72.05859375 C-15.15904023 70.97223494 -22.93718024 65.74355654 -28.1953125 59.5234375 C-37.32887947 47.07574687 -41.5735147 34.19738876 -40.31640625 18.74609375 C-38.54429653 10.2251111 -34.47697634 3.53337284 -27.4375 -1.6328125 C-18.55213518 -6.78452907 -8.61538018 -4.6636375 0 0 Z " fill="#442D0F" transform="translate(646.31640625,270.25390625)"/>
<path d="M0 0 C7.08202872 5.94834428 10.42563989 13.5169334 11.37890625 22.6171875 C11.82255639 36.6136337 7.10066027 49.14330447 -1.3125 60.3125 C-7.63393633 66.63393633 -15.71523659 71.9615327 -24.8125 72.5 C-31.40479237 72.2692196 -36.97586321 69.73763962 -41.85546875 65.3203125 C-50.6404975 55.55916944 -50.67140741 44.72315818 -50.17919922 32.26123047 C-49.79165436 27.37098452 -48.24094913 23.31435067 -46 19 C-45.57589844 18.14148438 -45.15179688 17.28296875 -44.71484375 16.3984375 C-39.57162271 6.9142806 -31.51418888 -0.4594759 -21.0625 -3.578125 C-13.46264967 -5.13263984 -6.52393614 -4.2805752 0 0 Z " fill="#442D0F" transform="translate(382,270)"/>
<path d="M0 0 C0.89846649 0.00449661 1.79693298 0.00899323 2.72262573 0.0136261 C5.67538504 0.03261394 8.6273308 0.07391343 11.57983398 0.11669922 C13.64052962 0.13713949 15.70123471 0.1566464 17.76194763 0.17526245 C22.07341303 0.2177259 26.38456353 0.27119989 30.69580078 0.33251953 C36.21587255 0.41018817 41.73580063 0.46088517 47.2562418 0.50340462 C51.50891363 0.53905867 55.76133205 0.58877971 60.0138073 0.64275742 C62.04908569 0.66694808 64.08442004 0.68683474 66.1197834 0.70230484 C68.96567127 0.72609323 71.81067449 0.7687728 74.65625 0.81640625 C75.49329971 0.8196843 76.33034943 0.82296234 77.19276428 0.82633972 C83.67726499 0.96650151 87.79659282 2.45782365 92.63842773 6.98388672 C95.24882055 11.05302847 95.60952488 13.60524812 94.76342773 18.29638672 C92.44879393 24.85451584 88.22050735 28.08940024 82.20092773 31.04638672 C72.36840695 34.36116436 60.85395332 33.45505781 50.60717773 33.46435547 C49.30244507 33.46768387 47.9977124 33.47101227 46.65344238 33.47444153 C43.9138913 33.48037044 41.17437148 33.48228775 38.43481445 33.48168945 C34.96239709 33.48158773 31.49018371 33.4952785 28.01781464 33.51246166 C24.6517668 33.52638681 21.28575387 33.5256733 17.91967773 33.52685547 C16.69325562 33.53404099 15.4668335 33.5412265 14.20324707 33.54862976 C-8.86994946 33.48838514 -8.86994946 33.48838514 -17.23657227 26.29638672 C-21.24699666 21.97746814 -22.73099797 18.41021897 -22.64282227 12.42529297 C-21.882403 8.44040355 -19.38192683 5.72772733 -16.23657227 3.29638672 C-10.63208375 0.39450879 -6.2549079 -0.11553197 0 0 Z " fill="#37230B" transform="translate(463.236572265625,460.70361328125)"/>
<path d="M0 0 C2.14930623 1.57186218 2.90017421 2.46068959 3.38818359 5.09716797 C3.39156738 5.88752441 3.39495117 6.67788086 3.3984375 7.4921875 C3.40423828 8.79736328 3.40423828 8.79736328 3.41015625 10.12890625 C3.39855469 11.03511719 3.38695312 11.94132812 3.375 12.875 C3.38660156 13.77347656 3.39820313 14.67195313 3.41015625 15.59765625 C3.38608364 21.03004163 3.03519196 24.96480804 -1 29 C-4.25 29.375 -4.25 29.375 -8 29 C-11.15954305 26.45862841 -12.71540886 24.85377341 -14 21 C-15.00676527 8.63824289 -15.00676527 8.63824289 -12.1875 4.3125 C-8.21428911 0.11224849 -5.69151797 -0.50817125 0 0 Z " fill="#885F23" transform="translate(629,277)"/>
<path d="M0 0 C2 1.5625 2 1.5625 3 4 C2.65947262 9.52188509 1.1275042 13.10272063 -1.8125 17.75 C-2.49957031 18.85859375 -3.18664062 19.9671875 -3.89453125 21.109375 C-5.80021167 23.72570804 -7.24469758 25.3558895 -10 27 C-12.5625 27.375 -12.5625 27.375 -15 27 C-17.5048111 25.12139167 -17.98700625 24.03898126 -19 21 C-19.58644523 15.01825867 -18.35317044 10.87640945 -15 6 C-10.34092229 1.18641206 -6.75309195 -0.59237649 0 0 Z " fill="#865E23" transform="translate(359,279)"/>
<path d="M0 0 C4.58716587 4.44381694 8.78762713 9.20228499 13 14 C12.01 15.485 12.01 15.485 11 17 C9.15895764 14.54735411 7.32852207 12.08699041 5.5 9.625 C4.71302734 8.57699219 4.71302734 8.57699219 3.91015625 7.5078125 C3.41386719 6.8375 2.91757812 6.1671875 2.40625 5.4765625 C1.94541016 4.85861816 1.48457031 4.24067383 1.00976562 3.60400391 C0 2 0 2 0 0 Z " fill="#EE950C" transform="translate(336,450)"/>
</svg>
